<svg xmlns="http://www.w3.org/2000/svg" viewBox="0 0 512 512">
  <rect width="512" height="512" fill="#3B82F6"/>
  <path d="M256 128c-70.7 0-128 57.3-128 128s57.3 128 128 128 128-57.3 128-128-57.3-128-128-128zm0 208c-44.2 0-80-35.8-80-80s35.8-80 80-80 80 35.8 80 80-35.8 80-80 80z" fill="#fff"/>
  <path d="M400 192h-48c-8.8 0-16 7.2-16 16s7.2 16 16 16h48c8.8 0 16-7.2 16-16s-7.2-16-16-16zm-240 0h-48c-8.8 0-16 7.2-16 16s7.2 16 16 16h48c8.8 0 16-7.2 16-16s-7.2-16-16-16zm96-96c-8.8 0-16 7.2-16 16v48c0 8.8 7.2 16 16 16s16-7.2 16-16v-48c0-8.8-7.2-16-16-16zm0 240c-8.8 0-16 7.2-16 16v48c0 8.8 7.2 16 16 16s16-7.2 16-16v-48c0-8.8-7.2-16-16-16z" fill="#fff" opacity="0.8"/>
</svg>
